<svg xmlns="http://www.w3.org/2000/svg" viewBox="0 0 64 64">
<defs>
  <linearGradient id="g" x1="12" y1="10" x2="50" y2="53" gradientUnits="userSpaceOnUse">
    <stop stop-color="#5DB6FF"/><stop offset="1" stop-color="#1767E8"/>
  </linearGradient>
</defs>
<path d="M14 15.5A5.5 5.5 0 0 1 19.5 10H47a5 5 0 0 1 5 5v7H23a8 8 0 0 0 0 16h29v11a5 5 0 0 1-5 5H19a5 5 0 0 1-5-5V15.5Z" fill="url(#g)"/>
<path d="M23 22h28a5 5 0 0 1 5 5v8a5 5 0 0 1-5 5H23a9 9 0 1 1 0-18Z" fill="#0FC8B3"/>
<circle cx="45.5" cy="31" r="4.2" fill="white"/>
</svg>