<svg xmlns="http://www.w3.org/2000/svg" viewBox="0 0 64 64">
<defs>
  <linearGradient id="g" x1="12" y1="7" x2="50" y2="58" gradientUnits="userSpaceOnUse">
    <stop stop-color="#6EC8FF"/><stop offset="1" stop-color="#1E6CEB"/>
  </linearGradient>
</defs>
<path d="M25 8V5.5A3.5 3.5 0 0 1 28.5 2h7A3.5 3.5 0 0 1 39 5.5V8h5.5A5.5 5.5 0 0 1 50 13.5v37A5.5 5.5 0 0 1 44.5 56h-25A5.5 5.5 0 0 1 14 50.5v-37A5.5 5.5 0 0 1 19.5 8H25Zm4 0h6V6h-6v2Z" fill="url(#g)"/>
<rect x="20" y="18" width="5" height="29" rx="2.5" fill="#236EE9"/>
<rect x="30" y="18" width="5" height="29" rx="2.5" fill="#236EE9"/>
<rect x="40" y="18" width="5" height="29" rx="2.5" fill="#236EE9"/>
<rect x="16" y="24" width="3" height="18" rx="1.5" fill="#57B7FB"/>
<rect x="45" y="24" width="3" height="18" rx="1.5" fill="#57B7FB"/>
<circle cx="51" cy="14" r="6" fill="#10C7B5"/>
</svg>