<svg xmlns="http://www.w3.org/2000/svg" viewBox="0 0 512 512">

<defs>
  <linearGradient id="blueGrad" x1="0" y1="0" x2="1" y2="1">
    <stop offset="0%" stop-color="#57B7FF"/>
    <stop offset="55%" stop-color="#2F80ED"/>
    <stop offset="100%" stop-color="#1D5FD1"/>
  </linearGradient>
  <linearGradient id="blueLight" x1="0" y1="0" x2="1" y2="1">
    <stop offset="0%" stop-color="#A8DBFF"/>
    <stop offset="100%" stop-color="#6BB9F6"/>
  </linearGradient>
  <linearGradient id="tealGrad" x1="0" y1="0" x2="1" y2="1">
    <stop offset="0%" stop-color="#26E0B3"/>
    <stop offset="100%" stop-color="#08B89A"/>
  </linearGradient>
  <filter id="softShadow" x="-25%" y="-25%" width="150%" height="150%">
    <feDropShadow dx="0" dy="8" stdDeviation="10" flood-color="#1D5FD1" flood-opacity="0.16"/>
  </filter>
</defs>

<g filter="url(#softShadow)">
  <path d="M256 407 105 268C41 208 71 104 158 94c45-5 79 15 98 48 19-33 53-53 98-48 87 10 117 114 53 174L256 407Z" fill="url(#blueGrad)"/>
  <g fill="url(#tealGrad)">
    <rect x="372" y="95" width="18" height="60" rx="9" transform="rotate(4 381 125)"/>
    <rect x="404" y="113" width="18" height="60" rx="9" transform="rotate(42 413 143)"/>
    <rect x="420" y="151" width="18" height="60" rx="9" transform="rotate(88 429 181)"/>
  </g>
</g>
</svg>